<?xml version="1.0" encoding="utf-8"?>
<!-- Generator: Adobe Illustrator 14.0.0, SVG Export Plug-In . SVG Version: 6.00 Build 43363)  -->
<!DOCTYPE svg PUBLIC "-//W3C//DTD SVG 1.1//EN" "http://www.w3.org/Graphics/SVG/1.1/DTD/svg11.dtd">
<svg version="1.1" id="Layer_1" xmlns="http://www.w3.org/2000/svg" xmlns:xlink="http://www.w3.org/1999/xlink" x="0px" y="0px"
	 width="250px" height="134px" viewBox="0 0 250 134" enable-background="new 0 0 250 134" xml:space="preserve">
<g>
	<path d="M164.805,45.752c13.887,4.539,18.02,12.532,19.645,21.406c4.201,22.152-16.73,50.602-48.84,59.409
		c-29.196,7.993-58.799-1.49-68.113-19.374c-4.167-7.993-5.115-19.848-2.845-25.605c5.555-14.361,19.374-20.661,31.296-16.326
		c3.455,1.355,7.824,5.42,9.653,7.182l-5.081,6.706c-0.847-2.304-3.116-6.097-4.911-7.452c-8.603-6.503-18.662-2.98-25.944,7.723
		c-4.302,6.436-3.557,17.681-0.644,25.471c7.214,19.306,40.373,29.196,69.569,19.17c31.363-10.771,48.57-37.527,43.963-57.783
		c-1.557-6.638-5.926-17.07-22.016-19.645c0,0-2.777,1.355-3.082-0.203C157.049,44.126,163.789,45.277,164.805,45.752"/>
	<path d="M214.662,24.075c0.949,0,1.896,0.136,2.98,0.203c13.818,1.355,22.15,17.003,24.252,25.538
		c5.555,24.59-7.248,48.096-39.9,66.657c-35.529,19.983-68.824,3.185-75.768-15.377c-2.912-7.857-2.607-18.831,0.645-23.573
		c7.215-10.907,13.582-12.262,22.186-5.826c1.861,1.355,4.098,5.217,4.943,7.452l5.047-6.706c-1.795-1.762-6.164-5.827-9.721-7.182
		c-11.854-4.335-21.914,0-27.468,14.294c-2.202,5.758-0.745,15.58,3.421,23.573c9.551,18.629,39.12,33.125,72.313,16.8
		c35.225-17.477,51.617-42.812,46.471-67.809c-1.762-8.941-9.756-28.112-26.895-29.67c0,0-1.15-0.204-3.047-0.204L214.662,24.075z"
		/>
	<path d="M77.895,100.419c15.275-1.287,31.161-16.461,35.598-23.845c4.504-7.79,6.571-22.084-1.05-26.419
		c-0.915-0.542-4.437-2.777-5.555-1.151c-1.321,1.964,2.235,2.1,2.235,2.1c9.924,1.084,6.3,18.223,3.319,23.778
		c-2.709,5.148-16.021,21.813-35.089,24.048c-9.585,1.151-19.78,0.406-29.365-2.846C19.638,86.532,3.549,68.378,7.546,38.3
		c1.253-9.348,9.856-36.647,40.61-31.296c0,0,5.961,1.219,7.553,4.2c0.948,2.032,2.574,3.048,3.455,2.1
		c2.168-2.235-4.775-6.368-8.603-7.452C32.881,1.111,9.104,8.833,5.412,41.01C2.025,70.545,20.315,89.919,51.069,98.657
		C60.011,101.231,69.224,101.096,77.895,100.419"/>
	<rect x="25.633" y="95.271" width="218.09" height="1.693"/>
	<path d="M243.723,94.796H25.159v2.507h219.039v-2.507H243.723z M243.316,96.354H26.039v-0.61h217.277V96.354z"/>
	<rect x="25.633" y="93.645" width="218.09" height="1.626"/>
	<path d="M243.723,93.374H25.43v2.1h218.496v-2.1H243.723z M243.451,95.067H25.836v-1.151h217.615V95.067z"/>
	<rect x="26.141" y="28.749" width="218.057" height="1.693"/>
	<path d="M244.197,28.41H25.701v2.506h219.038V28.41H244.197z M243.791,29.968H26.615v-0.677h217.176V29.968z"/>
	<rect x="26.141" y="27.123" width="218.057" height="1.626"/>
	<path d="M244.197,26.92H25.904v2.1h218.7v-2.1H244.197z M244.063,28.613H26.412v-1.151h217.651V28.613z"/>
	<path d="M117.624,83.348c-3.59,0-4.775-4.199-6.3-7.925l-15.14-37.529L79.96,79.08c-0.915,2.981-2.438,4.268-5.148,4.268v0.61
		H88.97v-0.61c-1.389,0-3.184-2.032-2.642-3.59c0.508-1.151,8.739-22.422,8.739-22.422s7.79,21.135,8.061,22.083
		c0.847,2.438-1.795,3.929-2.913,3.929v0.61h17.409V83.348z"/>
	<path d="M139.268,86.532c5.758,0,13.277-0.745,17.781-4.539l-9.111,10.229h-33.633v-0.203c4.641-1.693,4.031-8.332,4.031-12.464
		V45.548c0-4.2,0.61-10.703-4.031-12.532v-0.203h17.273v0.203c-4.572,1.829-4.029,8.4-4.029,12.532v39.561
		C127.549,85.109,132.357,86.532,139.268,86.532"/>
	<path d="M192.105,41.213c0.338-0.203,0.609,0.678,0.879,0.339l-4.605,10.703c-1.355-3.59-5.08-6.774-7.654-6.774
		c-7.418,0-9.145,8.196-9.145,15.851c0,8.807,3.521,15.92,11.582,15.92c6.436,0,9.959-4.064,12.939-7.926l1.016,0.609l-7.654,14.022
		c-1.355-0.61-1.219-0.881-2.777-1.017c-1.422-0.203-3.793,1.017-5.486,1.017c-2.947,0-7.113-0.271-11.482-4.675
		c-4.234-4.132-6.402-10.093-6.402-16.596c0-5.826,2.1-12.938,5.895-16.868c1.828-1.761,5.283-5.352,10.5-5.352
		C186.279,40.604,187.838,44.126,192.105,41.213"/>
	<polygon points="88.834,18.385 88.834,16.488 96.185,16.488 96.185,18.385 93.847,18.385 93.847,24.075 91.206,24.075 
		91.206,18.385 	"/>
	<polygon points="136.049,16.488 138.691,16.488 138.691,19.265 141.604,19.265 141.604,16.488 144.145,16.488 144.145,24.075 
		141.604,24.075 141.604,21.229 138.691,21.229 138.691,24.075 136.049,24.075 	"/>
	<polygon points="185.195,16.488 190.75,16.488 190.75,18.114 187.838,18.114 187.838,19.401 190.615,19.401 190.615,21.026 
		187.838,21.026 187.838,22.449 190.818,22.449 190.818,24.075 185.195,24.075 	"/>
	<polygon points="115.728,22.991 117.895,18.791 113.729,18.791 	"/>
	<polygon points="135.373,28.004 132.934,29.358 137.742,29.358 	"/>
	<polygon points="174.898,28.004 172.527,29.358 177.303,29.358 	"/>
	<polygon points="95.507,28.004 97.878,29.358 93.17,29.358 	"/>
	<polygon points="156.541,94.525 158.98,95.948 154.203,95.948 	"/>
	<polygon points="77.522,94.525 75.117,95.948 79.825,95.948 	"/>
	<polygon points="116.98,94.525 119.352,95.948 114.542,95.948 	"/>
	<polygon points="196.373,94.525 193.934,95.948 198.744,95.948 	"/>
	<polygon points="165.109,22.991 163.111,18.791 167.211,18.791 	"/>
	<path d="M53.948,71.765l0.068,25.741c0,8.196-1.389,16.325,7.214,18.29v0.406H33.592v-0.406c7.587-2.168,6.266-13.413,6.266-19.848
		V41.417c0-6.503,0.813-17.139-6.029-20.051v-0.406h30.72c6.74,0,21.575,6.503,21.575,22.625
		C86.125,60.248,71.696,71.968,53.948,71.765 M53.948,64.99c9.822-1.016,21-8.128,19.679-23.912
		c-0.881-10.703-11.719-16.393-19.679-16.393V64.99z"/>
	<path d="M171.885,83.348c-3.625,0-4.709-4.199-6.199-7.925l-15.24-37.529L134.289,79.08c-0.916,2.981-2.439,4.268-5.148,4.268v0.61
		h14.09v-0.61c-1.322,0-3.117-2.032-2.574-3.59c0.406-1.151,8.67-22.422,8.67-22.422s7.857,21.135,8.129,22.083
		c0.746,2.438-1.727,3.522-2.98,4.268l0.068,0.271h17.342V83.348z"/>
	<path d="M113.458,99.199h-4.708l-0.271,1.017c1.084,0,1.457,1.151,0.746,2.709l-2.981,7.926c-0.677,2.304-2.913,4.336-4.572,4.674
		l-1.931-0.067c-1.321-0.406-1.321-2.235-0.711-4.132l3.625-9.552c0.067-0.136,0.203-0.339,0.271-0.475
		c0.542-0.88,1.592-1.286,2.134-1.083l0.373-1.017h-6.673l-0.338,1.017c0.677,0,1.592,0.338,1.118,1.558l-4.031,10.974
		c-0.271,2.71,0.881,4.268,2.845,4.472h2.27c2.167-0.204,4.572-2.371,6.13-5.148l3.319-8.942c0.474-1.625,1.863-3.048,3.048-2.912
		L113.458,99.199z"/>
	<path d="M137.234,99.199h-4.639l-0.34,1.017c1.152,0,1.523,1.151,0.813,2.709l-2.98,7.926c-0.744,2.304-2.912,4.336-4.572,4.674
		l-1.931-0.067c-1.321-0.406-1.389-2.235-0.644-4.132l3.488-9.552c0.137-0.136,0.271-0.339,0.34-0.475
		c0.541-0.88,1.592-1.286,2.133-1.083l0.441-1.017h-6.809l-0.271,1.017c0.678,0,1.66,0.338,1.084,1.558l-3.997,10.974
		c-0.305,2.71,0.881,4.268,2.845,4.472h2.269c2.167-0.204,4.64-2.371,6.097-5.148l3.422-8.942c0.406-1.625,1.727-3.048,2.98-2.912
		L137.234,99.199z"/>
	<path d="M162.875,99.199h-4.506l-0.338,1.017c0.813,0.135,1.32,0.542,1.016,1.829l-3.455,9.28l-3.047-12.126h-4.166l-0.203,1.017
		c0.914,0,1.252,0.677,1.049,1.829l-4.438,12.058c-0.643,1.219-1.523,1.761-2.506,1.761l-0.338,0.948h4.641l0.203-0.948
		c-0.779-0.203-1.322-0.677-0.779-2.303l3.826-10.094c1.254,4.403,2.371,9.213,3.557,13.887h0.949l5.893-15.58
		c0.645-1.016,1.592-1.558,2.303-1.49L162.875,99.199z"/>
	<path d="M188.922,99.199h-7.316l-0.406,1.084c0.473,0,0.813,0,1.219,0.136c0.068,0.067,0.271,0.271,0.271,0.474
		c0.066,0.271,0.066,0.542,0,0.813l-1.896,5.419h-6.436c0,0,1.76-5.216,1.896-5.352c0,0,0.881-1.693,2.641-1.558l0.34-1.017h-7.35
		l-0.34,1.017c0.881,0,1.795,0.203,1.389,1.558l-4.537,12.803c-0.408,1.017-1.66,1.423-2.406,1.287l-0.439,0.948h7.383l0.271-0.948
		c-0.914,0-1.896,0-1.254-1.896l1.863-5.419h6.436l-1.998,5.689c-0.609,1.287-1.795,1.762-2.643,1.626l-0.338,0.948h7.281
		l0.34-0.948c-0.543,0-1.83-0.339-1.424-1.49l4.404-12.396c0.203-0.406,0.475-0.745,0.744-1.084
		c0.678-0.542,1.355-0.609,1.965-0.609L188.922,99.199z"/>
	<path d="M197.592,99.199h-7.723l-0.406,1.017c0.949,0.067,2.168,0.203,1.625,1.558l-4.199,11.99c-0.406,1.558-2.031,2.1-2.98,2.1
		l-0.406,0.948h7.789l0.34-0.948c-1.287,0-2.033-0.406-1.49-2.1l4.336-12.193c0.541-1.151,1.828-1.558,2.844-1.423L197.592,99.199z"
		/>
	<path d="M206.805,111.731h-0.949c-0.27,0.406-0.609,0.948-0.881,1.354c-1.828,2.438-3.996,2.846-5.824,2.371
		c-0.881-0.203-0.746-1.354-0.406-2.507l3.928-11.177c0.609-1.287,1.693-1.761,2.574-1.558l0.475-0.949h-7.451l-0.271,0.813
		c0.609,0,1.152,0.203,1.422,0.745c0,0.203-0.066,0.609-0.135,0.881l-4.402,12.531c0,0.068-0.137,0.136-0.271,0.271
		c-0.609,1.084-1.49,1.49-2.439,1.354l-0.27,0.948h13.072L206.805,111.731z"/>
	<path d="M219.607,111.731h-0.949c-0.203,0.406-0.609,0.948-0.881,1.354c-1.828,2.438-4.063,2.846-5.824,2.371
		c-0.949-0.203-0.678-1.354-0.406-2.507l3.928-11.177c0.678-1.287,1.762-1.761,2.711-1.558l0.27-0.949h-7.451l-0.271,0.813
		c0.678,0,1.221,0.203,1.49,0.745c0,0.203-0.135,0.609-0.135,0.881l-4.402,12.531c-0.068,0.068-0.203,0.136-0.203,0.271
		c-0.609,1.084-1.627,1.49-2.371,1.354l-0.34,0.948h13.006L219.607,111.731z"/>
	<path d="M234.713,99.132h-1.084c-0.135,0.339-0.338,0.677-0.609,0.948c-0.813-0.881-1.965-1.49-3.387-1.287
		c-1.016,0.067-2.168,0.678-3.184,1.49c-2.846,2.371-3.658,6.097-2.168,8.062l3.387,2.573c0.813,1.355-0.475,4.2-2.438,4.878
		c-2.98,1.084-3.658-1.762-3.117-4.471h-1.15l-1.965,5.486h0.947l0.949-1.354c1.219,2.303,4.877,2.507,7.857-0.271
		c2.709-2.574,3.387-6.436,1.762-8.129l-3.387-2.71c-0.678-1.084-0.137-3.116,1.49-3.997c2.574-1.084,3.793,0.948,3.455,3.522h0.947
		L234.713,99.132z"/>
	<path d="M94.999,116.88h-7.417l0.338-1.017c0.847,0.136,2.371-0.339,2.439-1.761l0.135-2.71h-4.708l-1.795,2.71
		c-0.305,0.609-0.305,1.084-0.068,1.422c0.474,0.271,0.813,0.339,1.219,0.407l-0.338,0.948h-5.182l0.338-1.017
		c0.678,0,1.457-0.406,2.202-1.084l11.177-15.986h0.982l-0.508,15.58c0,1.017,0.644,1.423,1.457,1.49L94.999,116.88z
		 M90.562,110.173l0.271-6.164l-4.234,6.164H90.562z"/>
	<path d="M119.081,99.267l-7.011-0.067l-0.338,0.948c0.338,0.136,0.711,0.203,1.05,0.271c0.339,0.339,0.339,0.88,0.135,1.49
		l-4.504,12.396c-0.508,1.219-1.795,1.693-2.574,1.558l-0.271,0.948h6.74c0.745-0.067,1.592-0.203,2.337-0.339
		c0.508-0.203,0.982-0.338,1.524-0.609c2.1-1.558,4.03-4.741,3.116-6.639c-0.677-0.948-1.524-1.693-2.608-1.829
		c1.66-0.271,4.064-1.625,4.911-4.199C122.332,100.554,120.91,99.199,119.081,99.267 M111.257,114.17l2.201-5.825
		c0.068,0,0.305-0.068,0.44-0.068c0.542,0,1.084,0.136,1.66,0.271c1.457,1.016,0.203,4.471-1.592,6.435
		C112.646,116.27,110.918,116.202,111.257,114.17 M113.898,107.058l2.27-6.097l0.271-0.339c0.305-0.068,0.576-0.068,0.914-0.068
		c0.339,0,0.542,0.136,0.915,0.271c0.813,0.813,0.204,3.184-0.847,4.674C116.168,107.058,114.982,107.058,113.898,107.058"/>
	<path d="M143.502,116.066l-0.848-0.542l-1.457-7.315c1.863-0.745,3.963-2.168,4.775-4.742c0.848-2.506-0.135-3.929-1.795-4.268
		h-8.332l-0.27,1.017c0.609,0,1.32,0.135,1.389,0.813c0,0.339,0,0.609-0.068,0.813l-4.709,12.668
		c-0.066,0.271-0.371,0.474-0.643,0.813c-0.678,0.475-1.254,0.745-1.863,0.542l-0.338,0.948h6.773l0.373-0.948
		c-0.779,0-1.592-0.067-1.389-1.354l2.066-5.555c0.574,0,0.982,0.203,1.117,1.016l0.982,6.842h3.928L143.502,116.066z
		 M137.641,107.803l2.643-7.113l0.271-0.203c0.373-0.067,0.711-0.136,1.049-0.136c0.34,0.068,0.713,0.271,0.982,0.475
		c1.051,0.813,0.068,3.726-1.117,5.419C140.215,107.803,138.826,107.87,137.641,107.803"/>
	<path d="M212.494,67.293c2.98,0.068,5.283,0.746,6.842,2.71l5.217-9.145l-0.813-0.474c-0.543,0.88-3.117,1.49-7.316,1.422h-9.213
		V46.632c2.439-0.474,1.084-0.61,3.658-0.61c3.658,0,7.316,1.491,9.754,4.335h0.949l-1.762-9.348h-0.135
		c-1.018,0.474-2.305,0.339-3.658,0.339h-21.406v0.677c3.928,1.49,3.387,6.571,3.387,10.229v29.196c0,3.455,0.541,8.604-3.387,9.958
		v0.745h33.938l7.926-11.787l-0.541-0.271c-4.607,3.184-11.043,6.028-16.461,5.961c-8.672,0-12.193-1.084-12.193-1.084V68.852
		C207.279,68.852,208.973,67.226,212.494,67.293"/>
	<path d="M73.356,117.286c-1.321,2.98-5.419,6.773-11.448,6.773c-1.761,0-4.098-0.88-4.742-2.37
		c-0.61-1.423,0.373-1.965,1.321-1.965c1.118,0,1.389,0.609,0.982,1.558c-0.474,1.152,1.592,2.032,2.913,1.897
		c2.168-0.136,4.031-1.559,5.148-3.455c0.88-1.626,10.601-19.374,10.601-19.374h-2.1l0.305-0.609h1.999
		c1.66-3.455,5.893-8.807,10.127-8.807c3.455,0,2.574,3.049,1.728,4.675c-0.542,1.287-0.542,0.88-1.524,0.88
		c-1.253,0-1.456-0.677-1.016-1.558c0.474-1.151,0.474-0.406,0.813-1.016c0.271-0.61,1.524-2.507-0.542-2.507
		c-1.05,0-2.371,0.881-3.116,2.574c-0.847,1.761-1.558,3.997-2.439,5.758h2.27l-0.203,0.609H82.23L73.356,117.286z"/>
	<path d="M74.575,105.499c-1.795,4.133-5.894,7.113-9.348,7.113c-3.319,0-4.776-2.98-2.913-7.113
		c1.863-4.132,5.894-6.978,9.349-6.978C75.151,98.521,76.54,101.367,74.575,105.499 M71.121,105.499
		c1.253-2.845,2.709-6.436,0.271-6.436c-2.405,0-4.437,3.861-5.487,6.436c-1.083,2.913-2.743,6.503-0.406,6.503
		C67.937,112.002,69.799,108.345,71.121,105.499"/>
	<path d="M214.121,22.246c-5.082,0-15.514,1.694-21.34,14.7c0,0-0.609,2.303,1.152,2.303s1.762-1.693,1.762-3.319
		c0-1.558,4.945-11.922,19.035-11.854L214.121,22.246z"/>
</g>
</svg>
